<?xml version="1.0" encoding="UTF-8"?>
<svg width="512" height="512" viewBox="0 0 512 512" xmlns="http://www.w3.org/2000/svg">
  <!-- Background Circle -->
  <circle cx="256" cy="256" r="240" fill="#4CAF50"/>
  
  <!-- Inner lighter circle -->
  <circle cx="256" cy="256" r="200" fill="#66BB6A"/>
  
  <!-- Wheat/Grain icon simplified -->
  <g transform="translate(256, 256)">
    <!-- Center stem -->
    <rect x="-8" y="-80" width="16" height="160" fill="#FDD835"/>
    
    <!-- Grain heads - left side -->
    <ellipse cx="-25" cy="-60" rx="20" ry="35" fill="#FFB300" transform="rotate(-30 -25 -60)"/>
    <ellipse cx="-25" cy="-20" rx="20" ry="35" fill="#FFB300" transform="rotate(-30 -25 -20)"/>
    <ellipse cx="-25" cy="20" rx="20" ry="35" fill="#FFB300" transform="rotate(-30 -25 20)"/>
    
    <!-- Grain heads - right side -->
    <ellipse cx="25" cy="-60" rx="20" ry="35" fill="#FFB300" transform="rotate(30 25 -60)"/>
    <ellipse cx="25" cy="-20" rx="20" ry="35" fill="#FFB300" transform="rotate(30 25 -20)"/>
    <ellipse cx="25" cy="20" rx="20" ry="35" fill="#FFB300" transform="rotate(30 25 20)"/>
    
    <!-- Top grain -->
    <ellipse cx="0" cy="-90" rx="18" ry="30" fill="#FFB300"/>
    
    <!-- Leaves -->
    <path d="M -8,40 Q -40,60 -35,90 Q -20,85 -5,75 L -8,40" fill="#8BC34A"/>
    <path d="M 8,40 Q 40,60 35,90 Q 20,85 5,75 L 8,40" fill="#8BC34A"/>
  </g>
  
  <!-- Letter F overlay -->
  <text x="256" y="380" font-family="Arial, sans-serif" font-size="120" font-weight="bold" text-anchor="middle" fill="#FFFFFF" opacity="0.9">F</text>
</svg>